<svg xmlns="http://www.w3.org/2000/svg" xmlns:xlink="http://www.w3.org/1999/xlink" data-name="Layer 1" viewBox="0 0 824.26 596.04" id="innovation-technology"><defs><linearGradient id="d" x1="383.3" x2="381.11" y1="457.68" y2="1.47" gradientUnits="userSpaceOnUse"><stop offset=".01" stop-color="#fff" stop-opacity=".4"></stop><stop offset="1" stop-color="#fff" stop-opacity="0"></stop></linearGradient><linearGradient id="e" x1="609.02" x2="752.61" y1="423.9" y2="384.49" gradientUnits="userSpaceOnUse"><stop offset="0" stop-color="#68e1fd" stop-opacity="0"></stop><stop offset=".02" stop-color="#66daf6" stop-opacity=".04"></stop><stop offset=".18" stop-color="#58a1bc" stop-opacity=".39"></stop><stop offset=".35" stop-color="#4d758f" stop-opacity=".66"></stop><stop offset=".53" stop-color="#45566f" stop-opacity=".85"></stop><stop offset=".73" stop-color="#40435c" stop-opacity=".96"></stop><stop offset=".99" stop-color="#3f3d56"></stop></linearGradient><linearGradient id="a" x1="685.9" x2="702.23" y1="252.25" y2="252.25" gradientUnits="userSpaceOnUse"><stop offset="0" stop-color="#ecc4d7"></stop><stop offset=".42" stop-color="#efd4d1"></stop><stop offset="1" stop-color="#f2eac9"></stop></linearGradient><linearGradient id="f" x1="693.68" x2="710.76" y1="243.48" y2="314.81" xlink:href="#a"></linearGradient><linearGradient id="g" x1="671.09" x2="705.81" y1="229.64" y2="229.64" xlink:href="#a"></linearGradient><linearGradient id="h" x1="654.63" x2="665.05" y1="306.89" y2="288.3" gradientUnits="userSpaceOnUse"><stop offset="0" stop-color="#183866"></stop><stop offset=".73" stop-color="#1b6ca9"></stop><stop offset="1" stop-color="#1a7fc1"></stop></linearGradient><linearGradient id="i" x1="680.04" x2="704.61" y1="303.37" y2="303.37" xlink:href="#a"></linearGradient><linearGradient id="j" x1="687.82" x2="693.18" y1="297.2" y2="297.2" xlink:href="#a"></linearGradient><linearGradient id="k" x1="655.85" x2="680.63" y1="313.28" y2="313.28" xlink:href="#a"></linearGradient><linearGradient id="b" x1="680.35" x2="673.03" y1="468.98" y2="455.18" gradientUnits="userSpaceOnUse"><stop offset=".36" stop-color="#00272e"></stop><stop offset="1" stop-color="#69b9eb" stop-opacity="0"></stop></linearGradient><linearGradient id="l" x1="708.89" x2="698.47" y1="470.99" y2="458.6" xlink:href="#b"></linearGradient><linearGradient id="c" x1="627.93" x2="679.47" y1="292.63" y2="292.63" gradientUnits="userSpaceOnUse"><stop offset="0" stop-color="#183866"></stop><stop offset="1" stop-color="#1a7fc1"></stop></linearGradient><linearGradient id="m" x1="679.39" x2="697.11" y1="308.69" y2="308.69" xlink:href="#c"></linearGradient><linearGradient id="n" x1="654.87" x2="663.6" y1="301.09" y2="328.31" xlink:href="#c"></linearGradient><linearGradient id="o" x1="702.04" x2="709.73" y1="302.93" y2="323.86" xlink:href="#a"></linearGradient><linearGradient id="p" x1="244.32" x2="242.12" y1="458.62" y2="2.14" xlink:href="#d"></linearGradient><linearGradient id="q" x1="627.93" x2="646.81" y1="283.91" y2="283.91" gradientUnits="userSpaceOnUse"><stop offset="0" stop-color="#68e1fd"></stop><stop offset="1" stop-color="#69b9eb"></stop></linearGradient></defs><path fill="#68e1fd" d="M445.56,72.79c-74.87,12-151.08,12.1-226.55,19.36C180,95.91-38.85,206.9,6,442.93,22.45,529.88,109.6,600.36,198,596.5c75.11-3.28,83.38-52.77,217.23-55.58,101.64-2.13,180,70.39,297.74,28.53,52.18-18.55,93.75-65.36,107.07-119.1S814,334.53,768.57,302.83C745,286.34,714.89,277.4,698.1,254c-32.91-45.86,33.74-116.79,4.09-164.81C643.23-6.34,508.4,62.75,445.56,72.79Z" opacity=".18" transform="translate(.07 -.61)"></path><path fill="#000405" d="M145.92,449s-79.07,19.67-10.6,48,386.36,59.6,502.72-4.49c0,0,79.81-2.22,82-13.41s-9.48-20.24-9.48-20.24l-40.47-1.37s-7.45,16.13-44.74-13.17S145.92,449,145.92,449Z" opacity=".05" transform="translate(.07 -.61)"></path><path fill="#3f3d56" d="M712.12,465.83A26.91,26.91,0,0,1,692.65,476c-10.6,0-5.48-9.92-1.95-9.92a12.59,12.59,0,0,0,2.94-.28L698,462l4.31-3.85,1.13-2.44s6,1.38,7.07-.21l.78,6.74v1.31A4.87,4.87,0,0,1,712.12,465.83Z" transform="translate(.07 -.61)"></path><path fill="#68e1fd" d="M628.06,449.17c0,34.52-107.56,62.49-240.23,62.49s-240.25-28-240.25-62.49a19.47,19.47,0,0,1,4-11.4c20.58-29.07,118.52-51.1,236.25-51.1s215.65,22,236.23,51.1A19.47,19.47,0,0,1,628.06,449.17Z" transform="translate(.07 -.61)"></path><path fill="#000405" d="M622.4,437.77c-20.61,29.07-118.53,51.08-236.23,51.08s-215.63-22-236.24-51.08c20.57-29.07,118.51-51.1,236.24-51.1S601.82,408.7,622.4,437.77Z" opacity=".05" transform="translate(.07 -.61)"></path><ellipse cx="386.9" cy="429.46" fill="#000405" opacity=".05" rx="196.17" ry="35.77"></ellipse><path fill="url(#d)" d="M556.39,426.36s13.75,30.08-163.09,31.27c-1.87,0-3.72,0-5.55,0-1.58,0-3.14,0-4.69,0-47.14,0-81.24-2.48-105.91-6h-.07c-63.18-9.07-64.32-25.19-64.32-25.19L98.63,2.83,281.76,2.1,663.59.61Z" transform="translate(.07 -.61)" style="isolation:isolate"></path><path fill="#3f3d56" d="M686.11,465.3c0,1-10.6,7.06-21,7.06s-5.48-10-1.94-9.92h3.53l2-1,7.6-3.88,1.13-2.44s6,1.38,7.07-.21l.78,6.85V463A4.82,4.82,0,0,1,686.11,465.3Z" transform="translate(.07 -.61)"></path><path fill="#3f3d56" d="M685.37,463a4.86,4.86,0,0,1,.56,2.33c0,1-10.6,7.06-21,7.06s-5.48-10-1.94-9.92h3.53l2-1,16.69.28Z" transform="translate(.07 -.61)"></path><path fill="#3f3d56" d="M670.77 468.55a15.53 15.53 0 01-7.78 0c-2.33-1.27-3.07-2.23-3-3.21s1.49-3.82 7.07-2.48 6.61 4.35 6.61 4.35zM712.12 465.83A26.91 26.91 0 01692.65 476c-10.6 0-5.48-9.92-1.95-9.92a12.59 12.59 0 002.94-.28L698 462l13.39.24v1.31A4.82 4.82 0 01712.12 465.83z" transform="translate(.07 -.61)"></path><path fill="#3f3d56" d="M698.55,471.69a15.49,15.49,0,0,1-7.77,0c-2.34-1.27-3.08-2.22-3-3.21s1.48-3.82,7.07-2.47,6.75,4.2,6.75,4.2Z" transform="translate(.07 -.61)"></path><path fill="#68e1fd" d="M664.41,350.16,675,454.88s7.07,2.55,10.22,0l4.38-82.48L702,455.59s5.79,3.74,9.36-.49l4.53-105.51S679,357.22,664.41,350.16Z" transform="translate(.07 -.61)"></path><path fill="url(#e)" d="M664.41,349.26,675,454s7.07,2.54,10.22,0l4.38-82.48L702,454.69s5.79,3.74,9.36-.5l4.53-105.5S679,356.32,664.41,349.26Z" transform="translate(.07 -.61)" style="isolation:isolate"></path><path fill="#68e1fd" d="M701.52,251.08a27.65,27.65,0,0,0,4.42,2.83,38.66,38.66,0,0,0,11.95,4.45c5.55.6,7.88,11,8.62,15.89s5.83,29.2,5.83,29.2a9.88,9.88,0,0,1-7.84,10.41c-9,2.93-8.77,4.38-8.77,4.38l.18,31.21s-40.55,9.85-51.5.57L666,307.79l6.05-45.9,17.18-8Z" transform="translate(.07 -.61)"></path><path fill="#3f3d56" d="M701.59,250.17a10.6,10.6,0,0,1-14.49,4.94s-8.77,15.22,3.78,13.42c6.65-1,11-11.51,12-16.49Z" transform="translate(.07 -.61)"></path><path fill="#000405" d="M704.45,302.6a86.91,86.91,0,0,0,9.65-2.86c1.1-.74-1.59-20.66-1.59-20.66s-1,16-21.49,23.66c-10,3.74,6.86,8.86,6.86,8.86Z" opacity=".05" transform="translate(.07 -.61)"></path><path fill="#000405" d="M702.47,315.7s11.07,4.09,13.26,2.65v24.36s-28.28-18.33-28.28-21.19S665.82,318,665.82,318v-6.67l32.84-3.88S705.76,301.29,702.47,315.7Z" opacity=".05" transform="translate(.07 -.61)"></path><path fill="#033b4b" d="M704.35,302.25s0,10-1.52,12.85-2.48-7.06-2.48-7.06Z" transform="translate(.07 -.61)"></path><path fill="url(#a)" d="M702.23,238s-.12,2.25-.28,5.2c-.14,2.47-.31,5.43-.43,7.9a16.59,16.59,0,0,1-5.06,11.06,18.57,18.57,0,0,1-6.18,4.2,3.28,3.28,0,0,1-4.27-3.91,22.76,22.76,0,0,0,1.14-5.8,18.28,18.28,0,0,0,.05-2.22,21.55,21.55,0,0,0-.49-4.07c-1.9-4.78,13.52-11.5,15.35-12.29Z" transform="translate(.07 -.61)"></path><path fill="url(#f)" d="M702.06,238.05c-.82,2.23-1,6.66-4.37,11-1.53,2-5.65,6.51-10.54,7.59a18.28,18.28,0,0,0,.05-2.22,21.55,21.55,0,0,0-.49-4.07C684.81,245.56,700.23,238.84,702.06,238.05Z" transform="translate(.07 -.61)"></path><path fill="url(#g)" d="M687,208.18A16.74,16.74,0,0,0,671.23,227a56.51,56.51,0,0,0,5.16,19.63c5.48,9.32,19.3,1.66,21.49-2.19s10.6-21.18,7.07-26.09C702.65,215.11,696,207.83,687,208.18Z" transform="translate(.07 -.61)"></path><path fill="#3f3d56" d="M672.36,201.69l2.76,1.45a10.61,10.61,0,0,0-8.66,4.09,14.11,14.11,0,0,0-4.1,9.75l4.84-2.3s-.35,5.93,8.77,6.39,18.8.81,18.8.81l-3.11-4.27s5.76,2.3,6.68,4.38a69.41,69.41,0,0,1,1.91,10.2s2.3-5.82,3.18-4.55-1,6.57-2.19,7.77-1,4.66-1.1,4.94,5.66-4.48,5.94-6.11,6-18.25,2.3-21.71l2.3-.18a10.93,10.93,0,0,0-4.49-1.73S691.16,191,672.36,201.69Z" transform="translate(.07 -.61)"></path><path fill="#68e1fd" d="M672.08,262.14s-7.07,3.1-8,17a135.11,135.11,0,0,1-4.94,26.45,160.22,160.22,0,0,1-16.09.81l7.85,6a23.76,23.76,0,0,0,10,4.48l5.41,1.2Z" transform="translate(.07 -.61)"></path><path fill="url(#h)" d="M698.3,309.87a2.54,2.54,0,0,1,0,.39,2.89,2.89,0,0,1-3,2.51l-53-3a2.74,2.74,0,0,1-1.31-.39,2.82,2.82,0,0,1-1.52-1.55L627.9,274.88a2.88,2.88,0,0,1,.38-2.65,2.93,2.93,0,0,1,2.41-1.2l36.79.64a2.89,2.89,0,0,1,2.72,2.12l8.06,28.95a2.89,2.89,0,0,0,2.37,2.08l15.06,2.23A2.89,2.89,0,0,1,698.3,309.87Z" transform="translate(.07 -.61)"></path><path fill="url(#i)" d="M703.93,308.21a4,4,0,0,1-2.64,0,10.46,10.46,0,0,1-2.52-.87c-1.45-.79-4.61-3.69-7.57-2.86a21.92,21.92,0,0,1-8,.42c-1.09-.25-1.09-.54-2.15-.42S680,303.2,680,303.2a44,44,0,0,1,10.27-4.88,31.13,31.13,0,0,1,10.61,2.16l2.3,1.32.14.07,1.24.72S704.7,307.66,703.93,308.21Z" transform="translate(.07 -.61)"></path><path fill="url(#j)" d="M693.18,298.4l-4.88-2.65s-.81,1.31-.32,2a5.54,5.54,0,0,0,.89.92A10.44,10.44,0,0,1,693.18,298.4Z" transform="translate(.07 -.61)"></path><path fill="url(#k)" d="M655.85,310.54a13.69,13.69,0,0,0,7.36,5c5.3,1.69,14.81-1.77,14.81-1.77s3.11-1.41,2.54-1.73-15.83-.92-15.83-.92Z" transform="translate(.07 -.61)"></path><path fill="#68e1fd" d="M666.7 462.44s3.54 1.8 3.75 4.59l.28 1.52S684 466 685.51 463l-.64-4.66a6.85 6.85 0 01-6.08 2.19c-3.14-.95-2.54-3-2.54-3zM694.8 466.43l-1.16-.6 8.66-7.73s1.87 4.52 8.45.88l.77 4.52a30.44 30.44 0 01-13.85 8.37A7.06 7.06 0 00694.8 466.43z" transform="translate(.07 -.61)"></path><path fill="url(#b)" d="M666.7,462.44s3.54,1.8,3.75,4.59l.28,1.52S684,466,685.51,463l-.64-4.66a6.85,6.85,0,0,1-6.08,2.19c-3.14-.95-2.54-3-2.54-3Z" opacity=".61" transform="translate(.07 -.61)"></path><path fill="url(#l)" d="M694.8,466.43l-1.16-.6,8.66-7.73s1.87,4.52,8.45.88l.77,4.52a30.44,30.44,0,0,1-13.85,8.37A7.06,7.06,0,0,0,694.8,466.43Z" opacity=".61" transform="translate(.07 -.61)"></path><path fill="url(#c)" d="M679.47,311.33l-20-1.06-18.73-1a2.89,2.89,0,0,1-1.31-1.49l-1.13-3.28-4.11-11.76-6.25-17.86a3,3,0,0,1,.46-1l18.42.24,19.47.26a2.26,2.26,0,0,1,2,1.94c.28,1.84,8,31.28,8,31.28A5.86,5.86,0,0,0,679.47,311.33Z" transform="translate(.07 -.61)"></path><path fill="url(#m)" d="M679.39,305.39s2.51,5.47,0,5.93l16.12.67s1.77-.42,1.59-1.73a5.33,5.33,0,0,0-1.59-2.61l-15.37-2.08Z" transform="translate(.07 -.61)"></path><path fill="#c7fdfb" d="M679.33,310.22c.38-.09.54-.82.36-1.64s-.65-1.41-1-1.32-.54.82-.35,1.64S679,310.31,679.33,310.22Z" transform="translate(.07 -.61)"></path><path fill="url(#n)" d="M675.72,311l-16.26-.67-18.73-1a2.84,2.84,0,0,1-1.31-1.52l-1.13-3.28,34.74.81A13.75,13.75,0,0,0,675.72,311Z" transform="translate(.07 -.61)"></path><path fill="#3f3d56" d="M684,355.28s1.74,14.12,5.59,17.05l-1.2-16.59Z" transform="translate(.07 -.61)"></path><polygon fill="#3f3d56" points="709.05 350.32 710.71 454.84 715.97 348.85 709.05 350.32"></polygon><rect width="257.95" height="318.8" x="259.02" y="57.8" fill="#68e1fd" rx="18.18"></rect><rect width="213.28" height="263.82" x="281.47" y="79.02" fill="#fff"></rect><line x1="314.46" x2="469.11" y1="216.64" y2="216.64" fill="none" stroke="#c7fdfb" stroke-miterlimit="10" stroke-width="1.68"></line><line x1="314.46" x2="469.11" y1="196.52" y2="196.52" fill="none" stroke="#c7fdfb" stroke-miterlimit="10" stroke-width="1.68"></line><line x1="314.46" x2="469.11" y1="176.4" y2="176.4" fill="none" stroke="#c7fdfb" stroke-miterlimit="10" stroke-width="1.68"></line><line x1="314.46" x2="469.11" y1="156.27" y2="156.27" fill="none" stroke="#c7fdfb" stroke-miterlimit="10" stroke-width="1.68"></line><line x1="314.46" x2="469.11" y1="136.15" y2="136.15" fill="none" stroke="#c7fdfb" stroke-miterlimit="10" stroke-width="1.68"></line><path fill="#fff" d="M175.62 418.43l-.49.37c-.39.29-.82.64-1.29 1a41.53 41.53 0 00-3.89 3.66c-3.57 3.82-5.73 7.66-5.75 11.32a8.65 8.65 0 001.37 4.71l.09-.74-5.8 5.58-.46.44.48.42L174 457.9l.28.25.35-.15 16.79-7.06H191l.29.13.84.35 3 1.26c3.17 1.3 6.44 2.6 9.65 3.81 1.12.43 2.23.84 3.3 1.23 6.43 2.34 11.4 3.85 14.36 4.24l-.49-.76-7.46 23.48-.17.55.54.19 12.87 4.48-.4-.54.18 6.71 1.18 0-.18-6.71v-.41l-.38-.13-12.87-4.48.37.73 7.45-23.48.22-.67-.7-.09c-2.84-.38-7.75-1.87-14.11-4.19l-3.29-1.22c-3.19-1.21-6.46-2.51-9.62-3.8l-3-1.26-.83-.35-.29-.12-.23-.1-.23.1-16.79 7.06.62.1-14.14-12.67 0 .86 5.79-5.58.35-.33-.26-.41a7.41 7.41 0 01-1.18-4.07c0-3.29 2-6.9 5.43-10.52a42.05 42.05 0 013.78-3.57c.46-.38.88-.71 1.25-1l.47-.35zM232.85 472.38l.74.12 2.14.33c2.31.37 4.92.77 7.79 1.21 8.18 1.24 16.72 2.48 25.19 3.64q6.45.88 12.49 1.65c19.22 2.44 33.75 3.78 41.74 3.65h.39l.15-.36 4-9.67-.58.36.31 0 .92.06 3.37.22c3.56.22 7.34.45 11.17.66 3.13.17 6.15.32 9 .45 8.95.41 15.95.59 20.24.46l-.61-.54 1.88 27.92 0 .56h1.23l1.88 0 6.74-.09c7-.11 13.94-.27 20.45-.48 16.29-.53 26.85-1.3 29.41-2.42l.38-.17 0-.41-.74-11.19-.26.53 19.76-13-.29.1.55 0 1.55-.12 5.51-.42c5.71-.47 11.41-1 16.74-1.57 11.35-1.24 19.4-2.53 22.8-3.86l-.78-.41L501 480.94l.08.33.33.1 32.83 9.32h.29l27.6-6-.49-.12 6 4.84.74-.91-6-4.84-.22-.18-.27.06-27.61 6h.29l-32.84-9.33.41.43-2.86-11.44-.17-.65-.62.24c-3.26 1.28-11.27 2.57-22.5 3.78-5.31.58-11 1.11-16.71 1.57-2 .17-3.84.31-5.5.43l-1.54.11-.55 0-.28.1-19.76 13-.29.18 0 .35.74 11.19.35-.58c-2.34 1-13 1.8-29 2.32-6.5.22-13.46.37-20.43.48l-6.73.09-1.88 0h-.67l.59.55-1.87-27.93 0-.57-.57 0c-4.25.12-11.22-.06-20.15-.46-2.88-.13-5.9-.29-9-.46-3.83-.21-7.61-.43-11.17-.65l-3.36-.22-.92-.06-.31 0-.43 0-.16.39-4 9.68.53-.37c-7.91.13-22.41-1.21-41.57-3.64-4-.51-8.19-1.06-12.48-1.65-8.46-1.15-17-2.4-25.18-3.64-2.86-.43-5.47-.84-7.78-1.2l-2.13-.34-.75-.11z" transform="translate(.07 -.61)"></path><path fill="#fff" d="M351.25 510.71L339.45 495l-.2-.27-.34 0c-4.25.49-18.5-.42-39.48-2.34l-8.81-.83c-7.51-.72-15.14-1.49-22.5-2.26l-7-.75-1.93-.21-.68-.07-.23 0-.18.13L244.9 498l.69.95 13.18-9.53-.41.11.68.07 1.93.21 7 .75c7.36.77 15 1.54 22.5 2.27l8.82.82c21.12 1.93 35.36 2.85 39.73 2.34l-.54-.23 11.8 15.67zM605 474.81l.25-12.18-.31.51.64-.37c.51-.3 1.07-.65 1.67-1.06a40.4 40.4 0 005.07-4c4.12-3.84 6.81-8.1 7.34-12.7l-.54.52 6.47-.49-.09-1.18-6.47.5-.48 0-.06.48c-.5 4.28-3 8.31-7 12a38.84 38.84 0 01-4.91 3.86c-.59.39-1.13.74-1.62 1-.29.18-.49.29-.6.35l-.3.16v.35l-.25 12.18zM193.12 411.2c-.12.07-.33.2-.62.4-.49.32-1 .7-1.63 1.13A42.42 42.42 0 00186 417c-5.86 5.92-8.63 12.44-6.53 19.24l1.12-.34c-1.94-6.3.66-12.43 6.25-18.07a40.17 40.17 0 014.77-4.11c.57-.42 1.1-.79 1.57-1.1.28-.19.48-.31.59-.37zM152.64 432.73a8.68 8.68 0 00-.88 1.83 15.47 15.47 0 00.12 10.59c1.89 5.54 6.47 11.27 14.3 17.06a139.2 139.2 0 0022.67 12.07l-.33-.36 4.06 12.64 1.12-.36-4.06-12.64-.09-.26-.25-.1a138.45 138.45 0 01-22.45-12c-7.62-5.64-12-11.17-13.85-16.47a14.29 14.29 0 01-.14-9.8 9.09 9.09 0 01.53-1.19 4.06 4.06 0 01.22-.38zM604.44 424.51c0 .05.11.13.21.27s.37.48.58.77a27.78 27.78 0 011.78 2.84c2.34 4.33 3.27 8.73 2 12.81-1.56 5.05-6.4 9.22-15.28 12.17-12.39 4.13-23.44 7.62-33 10.49q-5 1.5-8.73 2.57l-2.24.63-.76.21.57.15-8.41-8.22-.2-.2-.28 0-18.91 2.23.47.15-6-5.48-.79.87 6 5.47.2.19.27 0 18.91-2.22-.48-.16 8.41 8.22.24.24.33-.09.76-.21 2.25-.64c2.48-.71 5.4-1.57 8.74-2.57 9.56-2.88 20.62-6.37 33-10.5 9.21-3.06 14.35-7.49 16-12.94 1.36-4.44.37-9.14-2.11-13.72a28 28 0 00-1.85-3c-.22-.31-.43-.59-.62-.82a3 3 0 00-.24-.3z" transform="translate(.07 -.61)"></path><path fill="url(#o)" d="M703.93,308.21a4,4,0,0,1-2.64,0c2.45-.62,1.93-6.41,1.93-6.41l.14.07,1.24.72S704.7,307.66,703.93,308.21Z" transform="translate(.07 -.61)"></path><path fill="#3f3d56" d="M685.35,362.61l-2.83,93.14a5.38,5.38,0,0,0,2.71-.87l4.38-82.55Z" transform="translate(.07 -.61)"></path><polyline fill="none" stroke="#3f3d56" stroke-miterlimit="10" stroke-width="3" points="311.94 120.35 311.94 237.76 469.11 237.76"></polyline><path fill="#68e1fd" d="M333.55 154.22h9a4 4 0 014 4v77.07a0 0 0 010 0h-17a0 0 0 010 0V158.26A4 4 0 01333.55 154.22zM366.23 181.46h9.29a3.88 3.88 0 013.88 3.88v50a0 0 0 010 0h-17a0 0 0 010 0v-50A3.88 3.88 0 01366.23 181.46zM432.81 198.47h7.75a4.64 4.64 0 014.64 4.64v32.21a0 0 0 010 0h-17a0 0 0 010 0V203.11A4.64 4.64 0 01432.81 198.47zM397.65 143.47h7.76a4.64 4.64 0 014.64 4.64v87.21a0 0 0 010 0H393a0 0 0 010 0V148.12A4.64 4.64 0 01397.65 143.47z"></path><path fill="url(#p)" d="M387.82,457.93l-75.53-2.58c-.9-.06-21.58-2.67-48.49-6.34-10.47-1.43-47.71-12.52-51-22.55h0L98.63,2.83,281.76,2.1l106,455.55Z" transform="translate(.07 -.61)" style="isolation:isolate"></path><path fill="url(#q)" d="M646.81,274.17l-.62,1.43-10.6,18.3-1.41-1.15-6.25-17.86a3,3,0,0,1,.46-1Z" opacity=".13" transform="translate(.07 -.61)"></path></svg>